<svg width="1200" height="630" viewBox="0 0 1200 630" fill="none" xmlns="http://www.w3.org/2000/svg">
  <rect width="1200" height="630" fill="#FFF5F7"/>
  <circle cx="988" cy="122" r="150" fill="#FFDEEB"/>
  <circle cx="162" cy="534" r="200" fill="#FCC2D7"/>
  <rect x="94" y="88" width="1012" height="454" rx="40" fill="white" stroke="#F7C6D9" stroke-width="4"/>
  <rect x="146" y="144" width="126" height="126" rx="28" fill="#FFDEEB"/>
  <path d="M210 178C201.163 162.818 178.656 165.048 173.137 181.312C170.621 188.726 171.815 197.256 176.773 203.321L208 241L239.227 203.321C244.185 197.256 245.379 188.726 242.863 181.312C237.344 165.048 214.837 162.818 206 178L208 181.436L210 178Z" fill="#F06595"/>
  <text x="146" y="364" fill="#A61E4D" font-family="Pretendard, Arial, sans-serif" font-size="34" font-weight="700">사주 치트키</text>
  <text x="146" y="428" fill="#2D1B1E" font-family="Pretendard, Arial, sans-serif" font-size="74" font-weight="800">사주 정보와 해석 가이드</text>
  <text x="146" y="484" fill="#6B4A53" font-family="Pretendard, Arial, sans-serif" font-size="30" font-weight="500">초보자도 읽기 쉬운 설명형 콘텐츠와 사주 해석 참고 자료</text>
</svg>
